<svg xmlns="http://www.w3.org/2000/svg" width="1200" height="700" viewBox="0 0 1200 700" role="img" aria-labelledby="title desc">
<title id="title">Token elaborati nelle sessioni di prova</title><desc id="desc">Il volume dei token di input è centinaia di volte superiore all’output.</desc>
<defs>
  <marker id="arrow" viewBox="0 0 10 10" refX="9" refY="5" markerWidth="7" markerHeight="7" orient="auto-start-reverse"><path d="M 0 0 L 10 5 L 0 10 z" fill="#5F6368"/></marker>
</defs>
<style>text{font-family:"Latin Modern Sans","TeX Gyre Heros",Arial,sans-serif} .axis{stroke:#202124;stroke-width:2} .arrow{stroke:#5F6368;stroke-width:3;fill:none;marker-end:url(#arrow)}</style>
<text x="600" y="48" text-anchor="middle" font-size="30" font-weight="500" fill="#202124">Token elaborati nelle sessioni di prova</text><text x="600" y="82" text-anchor="middle" font-size="19" font-weight="400" fill="#5F6368">Valori approssimati dai grafici AI Studio — asse verticale logaritmico</text><line x1="180" y1="550" x2="1090" y2="550" stroke="#DADCE0" stroke-width="1"/><text x="160" y="557" text-anchor="end" font-size="18" font-weight="400" fill="#5F6368">1 k</text><line x1="180" y1="418.22294842173875" x2="1090" y2="418.22294842173875" stroke="#DADCE0" stroke-width="1"/><text x="160" y="425.22294842173875" text-anchor="end" font-size="18" font-weight="400" fill="#5F6368">10 k</text><line x1="180" y1="286.4458968434775" x2="1090" y2="286.4458968434775" stroke="#DADCE0" stroke-width="1"/><text x="160" y="293.4458968434775" text-anchor="end" font-size="18" font-weight="400" fill="#5F6368">100 k</text><line x1="180" y1="154.66884526521625" x2="1090" y2="154.66884526521625" stroke="#DADCE0" stroke-width="1"/><text x="160" y="161.66884526521625" text-anchor="end" font-size="18" font-weight="400" fill="#5F6368">1 M</text><rect x="323" y="179.3225715164944" width="92" height="370.6774284835056" fill="#0072B2" stroke="none" stroke-width="0" rx="3"/><rect x="455" y="544.5453939929419" width="92" height="5.454606007058146" fill="#E69F00" stroke="none" stroke-width="0" rx="3"/><text x="369" y="165.3225715164944" text-anchor="middle" font-size="20" font-weight="500" fill="#202124">≈0,65 M</text><text x="501" y="530.5453939929419" text-anchor="middle" font-size="20" font-weight="500" fill="#202124">≈1,1 k</text><text x="435" y="590" text-anchor="middle" font-size="22" font-weight="500" fill="#202124">8 set.</text><rect x="733" y="139.65372625127821" width="92" height="410.3462737487218" fill="#0072B2" stroke="none" stroke-width="0" rx="3"/><rect x="865" y="491.07483304018257" width="92" height="58.92516695981743" fill="#E69F00" stroke="none" stroke-width="0" rx="3"/><text x="779" y="125.65372625127821" text-anchor="middle" font-size="20" font-weight="500" fill="#202124">≈1,3 M</text><text x="911" y="477.07483304018257" text-anchor="middle" font-size="20" font-weight="500" fill="#202124">≈2,8 k</text><text x="845" y="590" text-anchor="middle" font-size="22" font-weight="500" fill="#202124">17 set.</text><line x1="180" y1="550" x2="1090" y2="550" stroke="#202124" stroke-width="2"/><rect x="430" y="628" width="24" height="18" fill="#0072B2" stroke="none" stroke-width="0" rx="0"/><text x="466" y="644" text-anchor="start" font-size="19" font-weight="400" fill="#202124">Input</text><rect x="600" y="628" width="24" height="18" fill="#E69F00" stroke="none" stroke-width="0" rx="0"/><text x="636" y="644" text-anchor="start" font-size="19" font-weight="400" fill="#202124">Output</text><text x="38" y="335" text-anchor="middle" font-size="22" font-weight="500" fill="#202124" transform="rotate(-90 38 335)">Token</text>
</svg>